<?xml version="1.0" encoding="UTF-8"?>
<!DOCTYPE svg PUBLIC "-//W3C//DTD SVG 1.1//EN" "http://www.w3.org/Graphics/SVG/1.1/DTD/svg11.dtd">
<!-- Creator: CorelDRAW -->
<svg xmlns="http://www.w3.org/2000/svg" xml:space="preserve" width="50mm" height="64mm" style="shape-rendering:geometricPrecision; text-rendering:geometricPrecision; image-rendering:optimizeQuality; fill-rule:evenodd; clip-rule:evenodd"
viewBox="0 0 50 64"
 xmlns:xlink="http://www.w3.org/1999/xlink">
 <defs>
  <style type="text/css">
   <![CDATA[
    .fil2 {fill:#1F1A17;fill-rule:nonzero}
    .fil1 {fill:#C0A062;fill-rule:nonzero}
    .fil0 {fill:#642121;fill-rule:nonzero}
   ]]>
  </style>
 </defs>
 <g id="图层_x0020_1">
  <metadata id="CorelCorpID_0Corel-Layer"/>
  <g id="_163408904">
   <path id="_163408832" class="fil0" d="M24.6137 1.1552l1.7638 0 -0.247 0.247c1.3052,0.2822 2.8222,-0.4234 4.3038,-0.4939l-0.7408 0.7761c1.27,1.6228 4.4803,-1.27 4.3039,1.5169 1.0231,0.0706 2.3989,1.3053 3.0339,0.247 1.0936,0.1411 1.6933,1.3405 2.54,2.0461 0.5997,-0.1764 1.3758,0.6702 2.0461,0.9878l-0.4939 0.5291c1.0583,0.4586 2.7517,1.5875 1.7639,2.54 -0.3528,0.0353 -0.7408,-0.5997 -1.0231,0 -0.8113,-1.9403 -3.1044,-2.2225 -4.833,-3.81 -0.9878,-0.2822 -1.9756,-0.3528 -2.2578,-1.5169 -1.1642,-0.7409 -3.8805,0.4939 -3.81,-1.27 -1.8344,1.1641 -3.6689,-1.3053 -5.0799,0.2469l0.2469 0.247 -1.2699 0 0 -0.247c-1.27,-0.9525 -2.1166,1.27 -3.3161,0.4939 -0.7408,0.6703 -1.905,0.9878 -2.2577,2.0461 0.8466,1.1995 2.9986,-0.388 4.5508,0.4939 0,0.5292 -2.6458,-0.1058 -2.2931,1.517l0.7762 0 -0.247 0.2822c1.7286,0.9525 2.9281,-0.9525 4.5507,-1.0231 0.2469,-0.4586 -0.3175,-1.1994 -0.9877,-1.27 0.6702,-0.1058 1.0936,-0.3528 2.0107,-0.2469 -0.3881,0.5644 0.635,0.8819 1.27,0.7408l0.2469 -0.2469c-0.1411,-0.1411 -0.2469,-0.3528 -0.4938,-0.247l0 -0.5291c0.5644,-0.2117 0.8466,0.3527 1.27,0.5291 -0.247,-0.1058 -0.3528,0.1059 -0.4939,0.247 3.3514,0.6702 5.9266,3.0691 9.1369,3.81l0 0.4939c-0.1411,-0.1412 -0.2822,-0.3175 -0.5292,-0.247l-0.2469 0.247c0.5997,0.7055 1.0936,0.9877 1.7639,1.023 0.1058,0.3528 -0.3175,0.5292 -0.4939,0.7761 0.6703,0.6703 1.5169,1.5875 2.2931,1.27l0.4938 0.7409c-0.1411,0.4938 -0.5997,-0.882 -1.27,-0.4939 0,0.8466 0.7056,2.2225 1.517,2.7869 0.2822,-0.2822 0.6703,-0.5292 0.5292,-1.0231l0.7408 1.2701 0.5292 -1.2701c-0.1059,0.9878 1.0583,2.0462 1.023,3.3162 1.0936,2.5752 -0.1058,6.1382 0.9878,8.3606 2.1519,-0.3528 0,-1.9755 1.023,-3.0337 -0.5644,-1.4111 -0.0352,-4.4097 -1.27,-6.103 1.3406,1.0936 1.3406,3.4925 1.27,5.08l0.5292 0 0.247 3.8098c-1.0937,0.5291 0.1763,2.8927 -1.7992,2.7869 -0.1058,0.3881 -0.1411,0.7761 -0.4939,1.0231 0.8819,0.1763 0.4939,1.4816 0.2469,2.0461 -1.3405,1.9402 -1.658,4.7625 -4.0569,5.8208 0.2469,0.635 -0.4586,0.9878 -1.0231,1.5522 0.1059,-0.2469 -0.1058,-0.388 -0.2469,-0.5291 -0.4586,-0.1412 -0.7056,0.2469 -1.0231,0.5291l0.5292 0.4939c0.0353,0.7761 -2.3636,0.4233 -2.293,2.0461 -2.8575,0.635 -4.9742,3.7747 -7.867,3.5278 -0.9525,0.1764 -1.7286,0.7408 -2.7869,0.5292l0.4939 -1.0231c-0.7578,0.5804 -3.4565,-0.0349 -4.4148,-0.4391 1.6304,0.6469 3.8537,-1.705 4.6617,-1.3248l0 0.247c1.4464,-1.3053 3.1397,-1.1642 5.08,-1.27 0.7408,-1.905 2.6811,-0.3175 3.3161,-2.54l-1.023 -0.247c-0.4939,0.3175 -1.27,0.3881 -1.0231,0.9878 -0.8467,0.1764 -1.8344,0.7408 -2.54,0.5292 -0.7056,0.5997 -1.2347,0.388 -1.5169,1.023 -0.315,-0.4076 -0.5327,-0.7568 -0.5456,-1.0988 -0.0008,-0.0216 -0.0008,-0.0432 0,-0.0648l-0.1224 0.1774 -0.1677 0.2429c-0.0636,0.0481 -0.126,0.0734 -0.1874,0.0813l0 0.3798c0.3528,0.7055 -0.7408,-0.4233 -1.27,-0.247 0.2093,-0.3402 0.574,-0.2726 0.9212,-0.2439 -0.2962,-0.1977 -0.5878,-0.5733 -0.9212,-0.4622 0.1752,-0.2846 1.2447,-0.5604 1.6251,0.2491 0.0311,0.0663 0.0577,0.1399 0.0787,0.2214 0.005,0.0193 0.0097,0.0389 0.0141,0.0591 -0.0065,-0.0181 -0.0112,-0.0378 -0.0141,-0.0591 -0.0126,-0.0903 0.0057,-0.2071 0.0437,-0.334 0.1084,-0.3626 0.3773,-0.807 0.5456,-0.9473 0.2822,0 0.5997,-0.0706 0.7761,0.2469l1.2347 -1.2699c0.3528,0.1058 0.8467,-0.2117 1.023,0.2469l0.247 -1.27c2.0461,0.2469 2.1872,-2.6458 3.81,-2.2578 -0.9525,-1.023 0.7408,-1.5522 0.5292,-2.54 0.635,-0.1058 1.4816,-0.9878 1.7638,0 2.2313,-3.9551 3.7732,-9.8565 0.5613,-13.1198 0.121,-5.185 -7.1229,-8.9639 -11.709,-10.763 -1.4111,-0.2823 -2.4081,-0.4354 -4.0921,-0.4939 -1.6933,0.5291 -2.928,-0.1411 -4.0569,1.7639 -0.1411,-0.1411 -0.3175,-0.2823 -0.247,-0.4939 -3.0338,-0.1059 -4.6213,3.3161 -7.1261,4.5508 -0.0705,0.8467 0.0706,0.4233 0.5292,0.7761 -0.3881,1.5522 -1.3758,2.1872 -2.2931,3.5278 -0.0705,0.5997 -0.0352,1.5875 -1.023,1.7992 -0.5997,0.7408 0.0705,1.6227 0.5292,2.293 -1.3406,1.7285 -0.7409,4.0568 -0.5292,6.3498 0.3175,3.1045 2.54,3.175 2.7869,6.35 1.0584,-0.4233 1.0231,0.6703 1.5523,0.9878 -0.2823,0.5997 -0.7762,-0.3528 -0.7762,0.5292 0.3231,0.043 0.5673,0.2833 0.8048,0.5442l0.0083 -0.0051c0.475,-0.2957 1.4465,-0.4203 1.7269,-0.5044 -0.1763,-0.4586 -0.6702,-0.1411 -1.023,-0.2469l-0.7039 0.7513 -0.0066 0.007c0.151,0.1659 0.2992,0.34 0.4635,0.4769l-0.4938 0.4939c0.7761,-0.0353 0.4586,1.0583 1.27,1.0231 -0.2117,-0.5998 0.3175,-0.8467 0.4938,-1.27 0.9169,-0.275 1.6748,0.2441 2.1134,0.9385l0.0038 0.0059c0.213,0.0903 0.4219,0.1848 0.6297,0.2794l0.2687 0.1221 0.0183 -0.0759c0.3914,0.1331 0.6801,0.2974 0.9186,0.4691 0.8279,0.3062 1.7315,0.4975 2.8914,0.3417 0.9173,0.7761 3.1749,-0.4939 4.0921,1.0231l-0.9523 0c0.3775,0.1014 0.7113,0.3074 0.9523,0.7061l-5.0798 0c-0.6703,-0.8467 -2.1167,-0.8467 -3.0692,-1.517l0.1472 -0.61c-0.0501,-0.0304 -0.0993,-0.0624 -0.1472,-0.0961l-0.0401 -0.3631 -0.0501 -0.4528 -0.5757 -0.0033 -0.0077 0.1708 -0.025 0.5571 -0.0422 0.0213c-0.3881,0.1058 -0.5292,-0.3528 -0.7762,-0.4939 -0.7761,-0.1058 -1.0583,0.0706 -1.27,0.7408l2.2931 0.5292c-0.4939,0.247 0.0706,0.7056 0.2469,0.9878 1.1606,-0.3316 5.348,2.2422 6.8885,2.8977 -0.1808,0.1132 -3.2213,0.1112 -3.3254,0.4184 -0.3881,0.7761 -2.0461,-0.3881 -2.7869,0 0.0352,0.635 0.7055,0.7761 1.27,0.7761 -2.8223,0.1411 -5.7503,-1.9403 -8.1492,-4.0922 0.3528,-0.0706 0.8467,0.2117 1.023,-0.247 -0.5291,-0.7761 -1.6227,-0.2469 -2.293,-0.7408l0.5292 -0.5292c-1.0937,-0.5997 -2.3989,-0.7761 -3.3162,-1.7638l0 -0.5292c0.1412,0.1411 0.2823,0.3528 0.4939,0.2822 0.5998,-0.5997 -0.3175,-1.1994 -0.4939,-1.7992 -0.2469,-0.0705 -0.3527,0.1412 -0.4938,0.247l-0.5292 -0.4939c1.0583,-0.1058 0.7761,-1.3053 0.2469,-1.7639 -0.5997,-1.3405 -2.3283,-0.8466 -2.0108,-2.54 0.4233,0.4939 0.4586,1.3759 1.27,1.517 -0.7408,-1.6581 1.5522,-3.6336 -0.5292,-4.057 -0.0705,-0.4233 0.2117,-1.023 -0.2469,-1.27 -0.4586,0.4234 -0.1764,1.1642 -0.247,1.7639l-0.2469 -0.2469c-0.4586,0.1764 -0.1764,0.6702 -0.2469,1.023l-0.2823 0c-0.8114,-0.8819 0.5998,-2.1166 -0.4939,-2.8222l-0.4938 1.7992c0.388,0.7408 -0.7056,-0.9525 -0.7762,-1.517 0.4587,-0.388 0,-1.1641 0.4939,-1.5522l-0.4939 -0.4939c0.1059,-2.6809 0.5998,-5.4326 2.0462,-7.3729 -0.1764,-0.3174 -0.4939,-0.2469 -0.7762,-0.2469 -0.0705,-0.5292 0.0353,-0.9525 0.4939,-1.27 -0.0705,0.247 0.1411,0.3528 0.2823,0.5292 0.9525,-1.3053 1.6227,-3.0692 1.7638,-4.5861 3.3162,-1.5875 5.6445,-6.3853 9.6662,-5.5739 0.8113,-1.3759 2.1519,-2.8222 1.27,-4.5861l-0.7762 -0.247c1.7287,0.1059 0.635,-1.1289 2.2931,-1.27 1.8344,0.0353 3.2103,-1.0583 5.08,-1.023l0 0.2469zm12.4176 44.2029l0.2822 -0.247c-0.1764,-0.3175 -0.4939,-0.2469 -0.7761,-0.2822l3.3161 -1.517c-0.0353,-0.6702 -0.9878,-0.5997 -0.2822,-1.27l1.023 0.5292 -3.563 2.787zm4.833 -4.057l-0.4938 0 1.27 -1.023c0,0.4586 -0.5292,0.6702 -0.7762,1.023zm-20.3982 0.4741c-0.2238,-0.1582 -0.4852,-0.2766 -0.7632,-0.3805 0.2124,0.1649 0.4444,0.302 0.7632,0.3805zm-5.4955 -3.2963c-0.3527,0.1058 -0.8466,-0.2117 -1.023,0.2822l0 -0.5291c0.3528,0.1058 0.8467,-0.2117 1.023,0.2469zm30.4799 -1.27l0 0.2822c-0.635,0.2822 -0.8467,-0.5292 -1.2701,-0.7761l0.247 -0.4939c0.4586,0.0353 0.0353,1.3758 1.0231,0.9878zm-42.686 -1.27c-0.2116,0.1058 -0.3527,-0.1058 -0.4939,-0.247l0.247 0 0 -1.27c0.3528,0.6351 0.388,0.8114 0.2469,1.517zm34.819 -3.5278l0.4939 -1.023 0.4939 0 -0.9878 1.023zm-35.5598 -0.7761c1.3406,0.5292 -0.5644,0.1764 0,-0.4939l0 0.4939zm44.9437 0c0.5997,0.8467 0.0353,1.8697 -0.4939,2.54 -0.1764,0.2469 -0.635,0.3881 -0.5292,0.7761l-0.4938 0c0.1058,-3.5983 2.2577,-5.6444 2.54,-9.1722 0.4233,1.9756 0.4586,4.3744 -1.0231,5.8561zm-46.7429 -4.5861l-0.2469 0 0 -1.5168c0.4586,0.141 0.1764,1.0229 0.2469,1.5168zm0.2823 -3.5276c-0.0353,0.2822 0.0352,0.5997 -0.2823,0.7408 0.2823,-0.6702 -1.658,-1.5169 -0.2469,-2.293 0.9525,0.3175 -0.8114,1.4111 0.5292,1.5522zm47.9775 -2.293c0.247,0.7055 -0.3527,1.0936 -0.7408,1.5169l-0.5292 -0.7761c-0.1058,0 1.1642,0.0706 0.7762,-0.7408l0.4938 0zm-0.4938 -2.2931l-0.247 0.2469c0.1058,-0.0705 -1.2347,-0.388 -1.023,-1.2699 0.4938,0.0352 1.0583,0.4586 1.27,1.023zm-1.517 -2.7869l0 0.7761 -0.7761 -1.0231c0.2822,0 0.5997,-0.0705 0.7761,0.247zm-4.0922 -2.54c-0.1411,-0.2823 -1.1642,0.6702 -1.27,-0.4939 0.4233,0.1411 0.7055,0.7055 1.27,0.4939zm3.0692 -0.247l-0.7762 -0.7761 -0.2469 1.27c0.9525,-1.6228 -1.5875,-1.905 -2.0461,-3.0339 -0.3528,0.5997 -0.3881,0.7761 -0.247,1.517 -0.7408,0.5997 -1.6227,-0.0706 -2.293,-0.4939l1.7992 0.2469c0.4586,-0.1411 -0.5645,-1.3758 0.4938,-1.023l0 -0.4939c1.3759,0.8114 2.4342,1.3053 3.3162,2.7869zm-6.597 -4.0569c-0.1411,0.3528 -0.1764,0.7408 -0.5292,0.9878l-0.2469 -0.9878 0.7761 0zm-1.27 -1.0231l0 0.4939c-0.4586,0.0353 -0.7055,-0.4939 -1.023,-0.7408l0 -0.5292c0.3175,0.247 0.5644,0.7761 1.023,0.7761zm-25.6467 -1.7991c-1.6228,4.0922 -5.5739,4.0216 -7.62,8.1491 -1.6581,-0.2469 -1.0937,2.3636 -2.2931,3.2809 0.3175,0.4233 0.2469,0.9877 0.2469,1.5169 -0.635,0.3175 -0.4938,0.9878 -0.4938,1.5522l-0.7762 0c0.3175,-0.4233 0.2823,-0.9525 -0.2469,-1.27l-0.2469 0c-0.3528,-0.8819 0.5291,-1.023 0.9877,-1.27l2.0461 -4.3391 0.247 0.2822c0.4586,-2.2578 3.4371,-3.8761 4.5861,-5.3622 1.3178,-1.0079 2.2578,-1.9403 3.5631,-2.54zm2.54 -1.27l-0.5292 0.5291 -0.247 -1.023 -1.27 0.4939c-0.2822,-0.4234 0.4939,-1.0937 1.0231,-1.27 0.7056,0.0705 0.6703,0.8466 1.0231,1.27zm1.27 -1.517c-0.3528,0.4939 -1.0231,0.2117 -1.27,-0.2469 0.4233,0.0705 0.9877,-0.2117 1.27,0.2469zm7.0964 41.349l-0.0001 0 0.0001 -0.0001 0 0.0001z"/>
   <path id="_163408880" class="fil1" d="M6.0173 13.4633c-0.6603,-2.0234 0.9809,-2.6634 2.1098,-3.7923 1.1642,0.1058 0.4948,-0.4534 0.6006,-1.4412l4.9285 -2.1735c-0.8819,3.4219 -4.9507,4.7002 -7.6389,7.407zm33.2819 20.2003c-1.27,1.7991 -2.3989,4.0922 -4.5861,5.08l-0.9878 0.4939 -0.504 -0.7586c2.0461,0.1058 1.8502,-2.2826 3.3671,-2.2826 -0.9525,-0.9172 1.1132,-1.6333 0.9721,-2.5152 0.4111,-0.2232 4.2559,-4.0245 1.7387,-0.0175zm-29.6999 -15.6482l0.2469 0.247c0.1764,-0.4234 0.7409,-0.7056 0.5292,-1.27 0.0706,0.4233 -0.2117,0.9877 0.2469,1.27l0.4939 -0.4939c1.8698,0.2822 -0.4939,1.4816 0.2823,2.5047 -3.0339,0.9878 1.5875,2.9633 -1.0231,4.092 -0.1411,2.1872 0.1058,4.1981 0.7408,6.0678l-0.4939 0.5292c0.9878,0.388 1.1289,2.2225 2.2931,2.7869 -0.1058,1.27 1.0231,2.6458 2.0108,2.7869l-0.7408 0.7762c0.6703,-0.3881 0.5644,0.7055 1.27,1.023l-0.5292 0.4939 1.5523 1.27c0.3175,-0.1411 0.2116,-0.4586 0.2469,-0.7761l0.4939 0c-0.3175,0.2822 -0.3881,0.6703 -0.4939,1.023 0.2822,0.4587 0.7408,0.5998 1.27,0.5292l0 0.247c-2.3989,1.658 -3.9511,-2.2931 -5.8561,-2.787 -0.4939,-1.27 -0.9172,-3.6689 -2.54,-4.3392 0.5292,-0.7055 0.0705,-1.6933 -0.4939,-2.293 -0.0706,-0.2117 0.1058,-0.3528 0.2469,-0.4939 -0.5997,-0.9172 -1.3405,0.6703 -1.5169,0.247 0.8467,-0.2117 0.5292,-1.6581 0.2469,-2.2931l0.247 0.2822c1.4817,-1.8697 0.3175,-3.9158 1.023,-6.1028l-0.4938 -0.5292 0.2469 -0.2469c-0.9172,-0.3881 -0.4586,-0.9878 -0.2469,-1.7639 0.7761,-0.8467 -0.3528,-1.5523 0.7408,-2.2931 -0.6703,-0.4939 0.1764,-1.023 0.2469,-1.5169 0.0706,0.388 -0.4233,0.5644 -0.2469,1.023zm3.3161 -1.023l-0.5292 0.4939c-0.8466,0.0705 0.635,-1.0584 0.5292,-1.7639 0.8114,0.388 0.1411,0.7761 0,1.27zm10.35 -8.5756c0.8819,0.7056 2.54,0.6703 3.8099,1.0231 0.2822,-0.0353 0.5997,0.0353 0.7408,-0.2822 0.1764,-0.8467 1.7287,-0.5998 2.54,-0.9878 2.8928,1.1994 6.2795,2.3283 7.867,5.5739l0.5292 0c2.5752,3.3513 3.7747,6.6322 3.563,11.1828 0.9878,2.3636 -1.3256,5.1068 -2.2428,7.2941 0.6005,-1.7415 2.6746,-7.1576 0.6906,-8.07 -0.5422,1.5081 0.0202,3.2098 -0.6626,5.0678 0.3175,0.1764 -0.3605,0.5059 -0.3252,0.7881l-0.5292 0.4939c-0.1058,-3.2103 1.6581,-8.8898 -1.5169,-11.6767 -1.1289,-5.0095 -6.1965,-7.4978 -10.5003,-9.1558 -2.1086,-0.5904 -3.828,0.2226 -6.0095,0.0188 -0.8467,-0.5291 0.7055,-1.1289 0.2469,-2.0461 0.2117,0.635 1.0231,0.882 1.7991,0.7761z"/>
  </g>
  <g id="_163061928">
   <path id="_163061808" class="fil2" d="M9.9284 60.7289l-0.0435 -0.0217c-0.0289,0.0144 -0.0398,0.0343 -0.0362,0.0597 0.0037,0.0235 0.0218,0.0398 0.0579,0.047l0.0218 -0.085zm-0.4252 -0.4867l-0.0851 0c-0.0633,0.0271 -0.0995,0.0651 -0.1104,0.1103 -0.0108,0.0453 -0.0162,0.0941 -0.0162,0.143 0.0488,0.1483 0.1284,0.1646 0.2388,0.0488 0.1086,-0.1176 0.0995,-0.2189 -0.0271,-0.3021zm1.6971 0.4867c-0.0361,-0.4379 -0.0633,-0.8486 -0.085,-1.2304 -0.0217,-0.3818 -0.0289,-0.7907 -0.0217,-1.2286 -0.0217,-0.0922 -0.0525,-0.1429 -0.0959,-0.1537 -0.0416,-0.0109 -0.1013,-0.0019 -0.1791,0.0253l-0.6369 0.3401c-0.0923,0.1267 -0.1755,0.2244 -0.2497,0.2914 -0.0742,0.0669 -0.1737,0.132 -0.3022,0.1954 -0.0416,0.0362 -0.0579,0.0669 -0.047,0.0904 0.0108,0.0254 0.0416,0.0453 0.0904,0.0579 0.0634,-0.0199 0.1267,-0.0434 0.19,-0.0687 0.0652,-0.0235 0.143,-0.029 0.2334,-0.0145 0.114,-0.1285 0.2696,-0.2081 0.4668,-0.2388 0.1973,-0.0326 0.2335,0.047 0.1068,0.2388 -0.1701,0.1049 -0.3203,0.2008 -0.4505,0.2859 -0.1321,0.085 -0.2859,0.123 -0.4614,0.1158 -0.1556,0.0362 -0.2171,0.1049 -0.1864,0.2062 0.0326,0.1032 0.1158,0.1611 0.2497,0.1756l0.7002 -0.2751c0.1339,-0.0434 0.2316,-0.0235 0.2913,0.0579 0.0598,0.0815 0.0254,0.1828 -0.1013,0.3022l-0.2117 0.1484c-0.1701,0.1266 -0.2424,0.237 -0.2171,0.3293 0.0253,0.0922 0.1176,0.1863 0.2804,0.2859 0.0923,0.0144 0.1719,0.0271 0.2389,0.0361 0.0669,0.0109 0.1502,0.0561 0.2497,0.1339 0.0344,0.0199 0.0669,0.0145 0.0941,-0.0163 0.0289,-0.0325 0.047,-0.0615 0.0542,-0.0904zm-2.5457 -5.9148c0.0579,-0.0507 0.1085,-0.0778 0.1538,-0.0851 0.047,-0.0072 0.1085,0 0.1863,0.0199 0.0778,0.0579 0.1593,0.1231 0.2443,0.1972 0.085,0.0742 0.1447,0.1575 0.1791,0.2479 0.1846,0.114 0.2841,0.2135 0.3022,0.2986 0.0181,0.0832 0.009,0.2044 -0.0253,0.36 -0.029,0.389 -0.1629,0.5682 -0.4035,0.541 -0.2407,-0.0289 -0.494,-0.1881 -0.7636,-0.4776 -0.1122,-0.1701 -0.1556,-0.3547 -0.1266,-0.5573 0.0271,-0.2009 0.1121,-0.3836 0.2533,-0.5446zm2.3322 -0.7636c0.1774,-0.0651 0.3655,-0.0289 0.5628,0.1049 0.1972,0.1339 0.3075,0.3113 0.3293,0.5302 -0.0073,0.2117 -0.0362,0.3872 -0.0851,0.5247 -0.0506,0.1375 -0.1411,0.3166 -0.2768,0.5356 -0.0561,0.0705 -0.0814,0.1321 -0.0742,0.1863 0.0072,0.0525 0.0688,0.0833 0.1809,0.0905l0.4451 0.0416c0.1774,0.0923 0.2823,0.19 0.3185,0.2968 0.0344,0.1067 -0.0434,0.2261 -0.2334,0.36 -0.2407,0.0923 -0.4668,0.1683 -0.6785,0.228 -0.2117,0.0597 -0.4307,0.1321 -0.6568,0.2171 -0.1918,0.029 -0.295,0.0977 -0.3131,0.2081 -0.018,0.1086 -0.0054,0.237 0.0362,0.3854 0.029,0.0362 0.0652,0.0489 0.1122,0.038 0.0453,-0.0109 0.0869,-0.0235 0.1212,-0.038 0.1846,-0.0488 0.3565,-0.0525 0.5139,-0.009 0.1592,0.0416 0.2352,0.1791 0.228,0.4125 -0.0561,0.2334 -0.0814,0.4505 -0.0742,0.6514 0.0072,0.2026 0.0036,0.4161 -0.009,0.6423l0.1049 1.4203c0.0289,0.1557 0.0543,0.3004 0.0796,0.4343 0.0253,0.1357 0.0416,0.2804 0.0471,0.4361 0.0072,0.056 0.0325,0.094 0.0759,0.1158 0.0417,0.0217 0.0869,0.0325 0.1376,0.0325 0.3311,0.0127 0.6531,0.0036 0.9644,-0.0325 0.3112,-0.0344 0.6387,-0.0254 0.9861,0.0325 0.085,0.0344 0.1375,0.0742 0.1592,0.1158 0.0199,0.0416 -0.0109,0.0959 -0.0959,0.1592 -0.2407,0.1484 -0.456,0.2479 -0.6478,0.2968 -0.19,0.0488 -0.398,0.1122 -0.6242,0.1918 -0.1846,0.0416 -0.3637,0.0633 -0.541,0.0633 -0.1773,0 -0.3492,-0.0072 -0.5193,-0.0217 -0.5084,-0.0362 -0.9879,-0.0977 -1.4366,-0.1864 -0.4488,-0.0868 -0.9246,-0.1538 -1.4258,-0.1954l-1.4421 -0.1266c-0.2406,-0.0073 -0.4614,-0.0163 -0.6622,-0.0272 -0.2027,-0.0108 -0.4198,-0.0307 -0.6532,-0.0579 -0.161,-0.0434 -0.3293,-0.1284 -0.503,-0.2551 -0.1737,-0.1267 -0.2533,-0.275 -0.2388,-0.4451 0.0362,-0.1194 0.114,-0.2153 0.2334,-0.2859 0.1212,-0.0706 0.2406,-0.1248 0.36,-0.1592 0.0652,-0.029 0.0996,-0.0217 0.1068,0.0217 0.0072,0.0416 -0.0217,0.0905 -0.085,0.1484 -0.1267,0.0488 -0.19,0.1266 -0.19,0.2334 0,0.1049 0.1122,0.1755 0.3383,0.2117 0.2696,0 0.5935,0.009 0.9753,0.0253 0.3818,0.0181 0.7635,0.0525 1.1453,0.1013 0.1846,0.029 0.3546,0.0489 0.5139,0.0579 0.1592,0.0109 0.3347,0.0199 0.5247,0.0272 0.3401,0.0289 0.664,0.0416 0.9752,0.0416 0.3112,0 0.6442,0.0145 0.997,0.0434 0.0633,-0.0072 0.1031,-0.0253 0.1176,-0.0525 0.0127,-0.0289 0.0163,-0.0687 0.009,-0.1176 -0.1338,-0.2044 -0.2388,-0.3546 -0.3166,-0.4505 -0.0778,-0.0959 -0.2262,-0.114 -0.4469,-0.0579 -0.2117,0.0416 -0.418,0.085 -0.6188,0.1267 -0.2027,0.0434 -0.4125,0.1067 -0.6315,0.1917 -0.1049,0.0851 -0.2442,0.0706 -0.4125,-0.0434 -0.1701,-0.1122 -0.2805,-0.2262 -0.3293,-0.3383 -0.0434,-0.114 -0.0851,-0.2135 -0.1267,-0.3022 -0.0434,-0.0887 -0.0651,-0.1791 -0.0651,-0.2714 -0.0127,-0.3456 -0.0127,-0.6839 0,-1.0114 0.0145,-0.3293 0.0995,-0.6623 0.2551,-1.0024 0.0561,-0.1412 0.123,-0.2334 0.2009,-0.2751 0.0778,-0.0434 0.1809,-0.0506 0.3075,-0.0217 0.1701,0.0217 0.2895,-0.0181 0.3619,-0.1176 0.0706,-0.0977 0.1194,-0.2225 0.1484,-0.3709 -0.029,-0.0778 -0.0633,-0.1158 -0.1013,-0.1158 -0.0398,0 -0.0833,0.0109 -0.1321,0.0326 -0.2407,0.0561 -0.4668,0.1158 -0.6785,0.1791 -0.2135,0.0633 -0.4397,0.1448 -0.6785,0.2443 -0.1629,0.0343 -0.3004,0.0307 -0.4144,-0.0109 -0.1122,-0.0416 -0.2153,-0.152 -0.3076,-0.3293l-0.1266 -0.0633c-0.029,0.0072 -0.0471,0.0344 -0.0579,0.0796 -0.0109,0.047 -0.0199,0.0905 -0.0272,0.1321 -0.2044,0.4324 -0.3401,0.9246 -0.4089,1.48 -0.0669,0.5555 0.0832,1.0368 0.4505,1.4475 0.0362,0.0977 0.0163,0.1773 -0.0579,0.2371 -0.0742,0.0615 -0.1682,0.038 -0.2804,-0.0688 -0.0706,-0.0832 -0.1285,-0.1411 -0.1755,-0.1683 -0.0453,-0.0289 -0.0995,-0.0289 -0.1647,0 -0.0344,0 -0.0651,-0.0036 -0.0886,-0.0108 -0.0254,-0.0073 -0.0308,-0.0326 -0.0163,-0.0742 0.0705,-0.0507 0.1122,-0.0959 0.1266,-0.1375 0.0145,-0.0434 0.0217,-0.0959 0.0217,-0.1592 -0.0488,-0.1357 -0.0886,-0.2588 -0.1158,-0.371 -0.0289,-0.114 -0.0398,-0.237 -0.0325,-0.3709 0.0633,-0.2623 0.1067,-0.5012 0.1321,-0.7165 0.0253,-0.2153 0.0452,-0.4505 0.0579,-0.7056 0.0072,-0.2117 -0.0055,-0.3728 -0.0362,-0.4813 -0.0326,-0.1104 -0.1321,-0.2751 -0.3022,-0.494 -0.1266,-0.1827 -0.1556,-0.3601 -0.085,-0.5301 0.0705,-0.1683 0.2261,-0.2461 0.4668,-0.2334 0.0706,0.0144 0.1375,0.0488 0.2008,0.1013 0.0634,0.0524 0.1303,0.0904 0.2009,0.1122 0.1284,0.0199 0.2261,0.0651 0.2985,0.132 0.0706,0.067 0.1122,0.1719 0.1267,0.3131l0.0416 0.1049c0.114,-0.1267 0.19,-0.1755 0.228,-0.1484 0.0398,0.029 0.1266,0.0507 0.2605,0.0634l0.2117 -0.0199c0.2407,-0.1412 0.4741,-0.257 0.7002,-0.3456 0.2262,-0.0887 0.4723,-0.1502 0.7419,-0.1846 0.3456,-0.0923 0.6532,-0.3021 0.9227,-0.6315 0.2678,-0.3274 0.4687,-0.6622 0.6044,-1.0023 0.0633,-0.2045 0.0452,-0.3782 -0.0543,-0.5193 -0.0977,-0.1412 -0.1013,-0.3004 -0.0109,-0.4759zm6.6715 5.7882c-0.1773,0.0416 -0.351,0.1176 -0.5247,0.228 -0.1737,0.1085 -0.3311,0.2659 -0.4723,0.4722 -0.0343,0.1194 -0.0199,0.2262 0.0489,0.3166 0.0669,0.0923 0.1773,0.0851 0.3329,-0.0199 0.1629,-0.1284 0.3329,-0.2967 0.5084,-0.5102 0.1774,-0.2117 0.2135,-0.3745 0.1068,-0.4867zm3.8159 -0.8269c-0.0072,-0.0072 -0.0235,-0.0036 -0.0524,0.0108 -0.029,0.0127 -0.0453,0.038 -0.0525,0.0742 -0.0289,0.1556 -0.0597,0.3004 -0.0959,0.4343 -0.0362,0.1339 -0.0669,0.2786 -0.0959,0.4342 -0.0271,0.1339 -0.0036,0.181 0.0742,0.1375 0.0778,-0.0416 0.152,-0.1085 0.2225,-0.2008 0.1484,-0.1773 0.2208,-0.3221 0.2172,-0.4342 -0.0018,-0.114 -0.076,-0.266 -0.2172,-0.456zm-0.5934 -1.2304l-0.0851 0.0434c-0.1411,0.1683 -0.1212,0.2461 0.0597,0.2335 0.1792,-0.0145 0.1882,-0.1068 0.0254,-0.2769zm-3.6676 -2.2472c-0.1267,-0.0923 -0.2081,-0.1683 -0.2443,-0.228 -0.0344,-0.0597 -0.0597,-0.1538 -0.0742,-0.2804 -0.056,-0.0778 -0.076,-0.1357 -0.0579,-0.1701 0.0181,-0.0362 0.0724,-0.0634 0.1647,-0.0851 0.2189,-0.0144 0.4433,0.0217 0.6731,0.1068 0.2298,0.085 0.4577,0.2262 0.6839,0.4234 0.1122,0.1845 0.1502,0.3311 0.1104,0.4397 -0.038,0.1103 -0.1538,0.2098 -0.3438,0.3021 -0.199,0.0633 -0.3763,0.0977 -0.5356,0.1013 -0.1592,0.0037 -0.3474,-0.0162 -0.5681,-0.0579 -0.1194,-0.0922 -0.1176,-0.1773 0.0054,-0.2551 0.1249,-0.0778 0.1864,-0.1773 0.1864,-0.2967zm3.4143 0.5518l-0.2135 -1.1887c-0.0905,-0.2262 -0.1158,-0.4017 -0.0742,-0.5302 0.0434,-0.1266 0.1954,-0.2117 0.4559,-0.2533 0.0579,0 0.1014,0.0254 0.1339,0.0742 0.0308,0.0489 0.0507,0.0959 0.0579,0.1375 -0.0144,0.2334 -0.0126,0.4705 0.0055,0.7111 0.0181,0.2388 0.0506,0.4903 0.0995,0.7527 0.0072,0.0416 0.0253,0.0905 0.0543,0.1484 0.0271,0.0561 0.0669,0.085 0.1158,0.085 0.0705,0 0.1537,-0.0163 0.2496,-0.0488 0.0959,-0.0308 0.1882,-0.0579 0.2805,-0.0796 0.0362,-0.0344 0.0561,-0.0634 0.0633,-0.0851 0.0073,-0.0199 -0.0072,-0.0488 -0.0416,-0.085 -0.1556,-0.1339 -0.2026,-0.2769 -0.1429,-0.4288 0.0597,-0.152 0.1845,-0.2353 0.3763,-0.2497 0.2334,0.0434 0.4361,0.1194 0.6098,0.2279 0.1719,0.1104 0.3655,0.295 0.5772,0.5573 0.0289,0.0634 0.0271,0.1122 -0.0055,0.143 -0.0307,0.0325 -0.0723,0.0542 -0.1212,0.0687 -0.114,-0.0145 -0.2189,-0.0289 -0.3184,-0.047 -0.0996,-0.0181 -0.2117,-0.0308 -0.3402,-0.038 -0.0271,0 -0.0525,0.0036 -0.0742,0.0108 -0.0199,0.0073 -0.0163,0.0326 0.0109,0.0742 0.0705,0.0706 0.0941,0.1393 0.0687,0.2063 -0.0235,0.0687 -0.076,0.1266 -0.1538,0.1755 -0.1556,0.0995 -0.3148,0.2099 -0.4813,0.3347 -0.1664,0.1231 -0.2877,0.2732 -0.3655,0.4506 0.0199,0.2406 0.0706,0.474 0.1484,0.7038 0.0778,0.2298 0.1683,0.4759 0.275,0.7382 0.0489,0.0634 0.0887,0.0887 0.1176,0.0796 0.0272,-0.0108 0.0598,-0.0452 0.0941,-0.1013l0.1068 -0.3601c0.0633,-0.1628 0.1212,-0.3256 0.1737,-0.4885 0.0543,-0.1628 0.0597,-0.3257 0.0163,-0.4867 -0.0634,-0.1285 -0.0272,-0.2207 0.1067,-0.2823 0.1339,-0.0597 0.2479,-0.0796 0.3384,-0.0579 0.1411,0.0435 0.2334,0.1122 0.2768,0.2063 0.0416,0.0959 0.0416,0.2045 0,0.3239l-0.1285 0.4885c-0.0832,0.1484 -0.1501,0.2823 -0.1954,0.4017 -0.0452,0.1212 -0.0723,0.2696 -0.0796,0.4451 -0.0488,0.1484 -0.1031,0.2949 -0.1592,0.4415 -0.0561,0.1447 -0.0887,0.2949 -0.0959,0.4505 0.114,0.2461 0.2443,0.4867 0.3926,0.7201 0.1484,0.2335 0.3149,0.4886 0.4994,0.7636 0.0905,0.0995 0.161,0.1375 0.2063,0.1158 0.0452,-0.0199 0.1176,-0.0814 0.2171,-0.1791 0.1629,-0.2552 0.2569,-0.4958 0.2805,-0.722 0.0253,-0.2261 0.0796,-0.4668 0.1646,-0.7201 0.0778,0.0489 0.1249,0.1411 0.143,0.275 0.018,0.1339 0.0615,0.2624 0.132,0.3818 0.0652,0.1846 0.0959,0.3691 0.0959,0.5573 0,0.1864 -0.0108,0.3836 -0.0307,0.588 -0.0652,0.1773 -0.1086,0.3257 -0.1339,0.4451 -0.0235,0.1195 -0.0217,0.2751 0.0054,0.4669 0.029,0.1121 0.0145,0.1827 -0.0416,0.2116 -0.0561,0.029 -0.1339,0.029 -0.2334,0 -0.2407,-0.1483 -0.4469,-0.3238 -0.6206,-0.5247 -0.1737,-0.2008 -0.3691,-0.4016 -0.5881,-0.5989l-0.6369 -1.1019c-0.0561,-0.0923 -0.1049,-0.1429 -0.1483,-0.1483 -0.0417,-0.0073 -0.105,0.0199 -0.19,0.0832 -0.1773,0.1357 -0.3384,0.2443 -0.4831,0.3293 -0.1448,0.085 -0.3022,0.1592 -0.4705,0.2225 -0.0995,0 -0.1827,0.0127 -0.2497,0.038 -0.0669,0.0236 -0.1465,0.0887 -0.2388,0.1955 -0.085,0.0144 -0.152,-0.0019 -0.2008,-0.0471 -0.0507,-0.047 -0.0959,-0.1085 -0.1375,-0.1864 -0.029,-0.1483 -0.0525,-0.275 -0.0706,-0.3817 -0.0163,-0.105 -0.0724,-0.2334 -0.1628,-0.3818 -0.0507,-0.1049 -0.0598,-0.1737 -0.0272,-0.2063 0.0326,-0.0325 0.0977,-0.047 0.1954,-0.047l0.1285 -0.0434c0.1266,-0.1339 0.2153,-0.2859 0.2642,-0.456 0.0488,-0.1701 0.0814,-0.3275 0.0959,-0.4759 -0.0145,-0.0651 -0.0362,-0.1031 -0.0634,-0.1176 -0.0289,-0.0144 -0.0633,-0.0108 -0.1067,0.0109 -0.1412,0.0778 -0.266,0.152 -0.3764,0.2225 -0.1085,0.0706 -0.1682,0.1864 -0.1755,0.3492 -0.0633,0.2696 -0.1393,0.5266 -0.228,0.7745 -0.0868,0.2478 -0.1737,0.512 -0.2587,0.7961 -0.0217,0.0904 -0.0561,0.1321 -0.1068,0.1212 -0.0488,-0.0109 -0.1121,-0.038 -0.1899,-0.0796 -0.0778,-0.0778 -0.1448,-0.1592 -0.2009,-0.2443 -0.0579,-0.085 -0.1031,-0.1737 -0.1393,-0.2641 -0.0127,-0.0362 -0.029,-0.067 -0.047,-0.0959 -0.0181,-0.029 -0.0362,-0.0398 -0.0579,-0.0326 -0.0996,0.0579 -0.1737,0.1266 -0.2226,0.2081 -0.0507,0.0814 -0.0742,0.1737 -0.0742,0.2804 0.0145,0.0706 -0.0072,0.1267 -0.0633,0.1701 -0.0579,0.0416 -0.1212,0.0905 -0.1918,0.1484 -0.2045,0.0705 -0.4342,0.1538 -0.6894,0.2479 -0.2533,0.0958 -0.4487,0.2605 -0.5826,0.4939 -0.0289,0.0561 -0.0724,0.0832 -0.1321,0.0796 -0.0597,-0.0036 -0.123,-0.0163 -0.1863,-0.038 -0.0778,-0.0416 -0.1466,-0.1013 -0.2063,-0.1791 -0.0597,-0.0778 -0.1122,-0.152 -0.1538,-0.2226 -0.1846,-0.2967 -0.2732,-0.5627 -0.2696,-0.7961 0.0036,-0.2334 0.1068,-0.5048 0.3112,-0.816 0.029,-0.0778 0.0308,-0.1267 0.0054,-0.1484 -0.0235,-0.0217 -0.0687,-0.0144 -0.132,0.0217l-0.2334 0.0851c-0.0634,0.0271 -0.1303,0.0452 -0.2009,0.0525 -0.0706,0.0072 -0.123,-0.0326 -0.1592,-0.1177 -0.0072,-0.056 0.0307,-0.1302 0.1104,-0.2225 0.0814,-0.0905 0.1646,-0.152 0.2497,-0.1791 0.1483,-0.0561 0.2895,-0.143 0.4252,-0.2606 0.1338,-0.1158 0.275,-0.2551 0.4233,-0.4179 0.0344,-0.0561 0.0489,-0.0996 0.0417,-0.1285 -0.0073,-0.0272 -0.0417,-0.0489 -0.105,-0.0633 -0.0217,0 -0.0488,-0.0091 -0.0796,-0.0254 -0.0326,-0.0181 -0.0615,-0.0452 -0.0905,-0.0796 -0.0289,-0.0778 -0.0108,-0.1791 0.0525,-0.3021 0.0633,-0.1249 0.1375,-0.1936 0.2226,-0.2081 0.0651,-0.0344 0.1375,-0.0905 0.2171,-0.1683 0.0814,-0.0778 0.1574,-0.1484 0.228,-0.2117 0.0217,-0.0579 0.0253,-0.0941 0.0108,-0.1122 -0.0126,-0.0181 -0.0524,-0.0163 -0.1158,0.0055l-1.167 0.5518c-0.4234,0.1484 -0.6767,0.0923 -0.7581,-0.1646 -0.0815,-0.2588 -0.0254,-0.5284 0.1646,-0.8106 0.114,-0.0507 0.1954,-0.0471 0.2443,0.009 0.0488,0.0579 0.0669,0.1448 0.0524,0.266 0.0218,0.0072 0.0362,0 0.0435,-0.0217 0.0072,-0.0217 0.0199,-0.0416 0.0416,-0.0634 0.2334,-0.0289 0.4469,-0.0723 0.6423,-0.132 0.1936,-0.0597 0.4107,-0.1303 0.6514,-0.2063 0.1972,-0.085 0.3944,-0.1773 0.588,-0.2768 0.1954,-0.0977 0.4017,-0.1755 0.6206,-0.2334 0.1629,-0.0851 0.3402,-0.1032 0.5356,-0.0579 0.1936,0.0452 0.1918,0.1718 -0.0054,0.3763 -0.1629,0.085 -0.313,0.1755 -0.4505,0.2696 -0.1376,0.0959 -0.2841,0.2244 -0.4397,0.3872 -0.0434,0.0507 -0.0615,0.0887 -0.0579,0.1176 0.0018,0.0272 0.0289,0.0597 0.0778,0.0959 0.0995,0.0199 0.1502,0.0651 0.1538,0.1321 0.0036,0.0669 -0.0326,0.1357 -0.1104,0.2063 -0.1972,0.1339 -0.3854,0.2732 -0.5627,0.4179 -0.1755,0.1466 -0.3709,0.3094 -0.5826,0.494 -0.0561,0.0561 -0.076,0.1031 -0.0579,0.1375 0.0181,0.0362 0.0579,0.047 0.1212,0.0326 0.199,-0.0778 0.3836,-0.1701 0.5573,-0.2769 0.1737,-0.1049 0.3619,-0.1972 0.5663,-0.275 0.1068,-0.0289 0.181,-0.0072 0.2226,0.0633 0.0434,0.0706 0.0181,0.1484 -0.0742,0.2334 -0.2461,0.1846 -0.4976,0.333 -0.7527,0.4451 -0.2533,0.114 -0.4759,0.2968 -0.6677,0.5519 -0.0343,0.0778 -0.0325,0.1194 0.0055,0.1267 0.0398,0.0072 0.094,0 0.1646,-0.0218 0.3112,-0.1827 0.5808,-0.322 0.8106,-0.4179 0.2298,-0.0959 0.5103,-0.0688 0.8432,0.0796 0.0633,0.0145 0.1158,0.0072 0.1538,-0.0217 0.038,-0.0272 0.0651,-0.0706 0.0796,-0.1267 0.0289,-0.1483 0.0633,-0.275 0.1067,-0.3818 0.0417,-0.1067 0.0905,-0.2261 0.1484,-0.36 0.0344,-0.199 0.0597,-0.3746 0.0742,-0.5302 0.0127,-0.1556 -0.0471,-0.3256 -0.1809,-0.5084 -0.0489,-0.0724 -0.0652,-0.1266 -0.0471,-0.1646 0.0163,-0.0398 0.0688,-0.0616 0.1538,-0.0688 0.0706,0 0.1393,0.0072 0.2063,0.0199 0.0669,0.0145 0.1393,0.0579 0.2171,0.1285 0.1267,0.0778 0.2388,0.1501 0.3347,0.2171 0.0941,0.0669 0.1593,0.1773 0.1954,0.3329 0.0073,0.0579 0.038,0.0814 0.0959,0.0742 0.0561,-0.0072 0.1086,-0.0308 0.1593,-0.0742l0.2117 -0.275c0.1339,-0.1556 0.237,-0.2949 0.3075,-0.418 0.0706,-0.1248 0.067,-0.2605 -0.0108,-0.4089 -0.0778,-0.0561 -0.1466,-0.0905 -0.2063,-0.1013 -0.0615,-0.0109 -0.1194,-0.0398 -0.1755,-0.0887 -0.0633,-0.0217 -0.0977,-0.0524 -0.1013,-0.0904 -0.0036,-0.0398 0.0308,-0.0797 0.1013,-0.1231 0.1122,-0.0416 0.199,-0.0868 0.2588,-0.1375 0.0615,-0.0488 0.0796,-0.1375 0.0597,-0.2642z"/>
   <path id="_163062096" class="fil2" d="M31.1782 58.2899l-0.1068 0.0217c-0.3112,0.085 -0.6097,0.161 -0.8956,0.2279 -0.2859,0.067 -0.588,0.1611 -0.9065,0.2805 -0.0289,0.0072 -0.0633,0.0253 -0.1067,0.0543 -0.0416,0.0271 -0.0561,0.0597 -0.0416,0.0941 -0.0218,0.0778 -0.0145,0.1483 0.0217,0.2135 0.0343,0.0633 0.0561,0.1411 0.0633,0.2334 0.0072,0.0344 0.0145,0.085 0.0217,0.152 0.0054,0.0687 0.0344,0.1158 0.0832,0.1447 0.0579,-0.0072 0.114,-0.0434 0.1701,-0.1067 0.0561,-0.0634 0.1068,-0.1195 0.1484,-0.1701 0.0145,-0.0489 0.0145,-0.0814 0,-0.0959 -0.0145,-0.0127 -0.0416,-0.0308 -0.0851,-0.0525 -0.056,-0.0217 -0.0904,-0.0452 -0.1049,-0.0742 -0.0145,-0.0271 0.0145,-0.0597 0.085,-0.0959 0.2117,-0.0977 0.4198,-0.1827 0.6243,-0.2533 0.2062,-0.0705 0.4216,-0.0778 0.6477,-0.0217 0.0923,0.029 0.1448,0.067 0.1592,0.1176 0.0127,0.0489 -0.018,0.1013 -0.0958,0.1574l-0.6369 0.2334c-0.1122,0.0507 -0.219,0.1068 -0.3167,0.1701 -0.0995,0.0634 -0.2063,0.1267 -0.3184,0.1918 -0.0634,0.0272 -0.0923,0.0633 -0.0851,0.105 0.0073,0.0434 0.0416,0.056 0.105,0.0434 0.0651,-0.0145 0.123,-0.0344 0.1755,-0.0597 0.0525,-0.0235 0.1085,-0.0543 0.1646,-0.0887 0.0778,-0.1067 0.1375,-0.1538 0.181,-0.1447 0.0416,0.0108 0.1085,0.009 0.2008,-0.0037 0.0706,-0.0217 0.1393,-0.0289 0.2063,-0.0217 0.0669,0.0073 0.1393,0.0217 0.2171,0.0417 0.0633,0.0217 0.0995,0.0524 0.1068,0.0904 0.0072,0.0398 -0.0145,0.0796 -0.0634,0.1212 -0.2551,0.0996 -0.4976,0.1973 -0.7273,0.2932 -0.2298,0.0941 -0.4741,0.1954 -0.7365,0.3021 -0.0995,0.0344 -0.1755,0.0778 -0.2279,0.1321 -0.0525,0.0525 -0.0977,0.1212 -0.1321,0.2063 -0.0434,0.0705 -0.0507,0.1248 -0.0272,0.1646 0.0254,0.038 0.0688,0.0616 0.1339,0.0688l1.4204 -0.4035c0.0778,-0.0127 0.1321,-0.0507 0.1646,-0.1104 0.0308,-0.0597 0.0742,-0.1013 0.1321,-0.123 0.0851,0.0217 0.1629,0.0362 0.2334,0.0434 0.0706,0.0073 0.1484,0.0145 0.2334,0.0217 0.0706,0.0055 0.1195,-0.0072 0.1484,-0.0434 0.0272,-0.0344 0.0416,-0.085 0.0416,-0.1484 -0.0217,-0.3112 -0.0398,-0.6043 -0.0579,-0.8793 -0.0181,-0.2769 -0.0344,-0.57 -0.0488,-0.8812 -0.0127,-0.0561 -0.0344,-0.0977 -0.0634,-0.1266 -0.0271,-0.0272 -0.0633,-0.0344 -0.1049,-0.0217zm-0.0434 -1.0802l-0.1267 0c-0.0705,0.0271 -0.1339,0.076 -0.1918,0.1429 -0.0561,0.0669 -0.1049,0.1321 -0.1483,0.1954 -0.0055,0.0217 0.0018,0.038 0.0271,0.0489 0.0253,0.009 0.0507,0.0144 0.0796,0.0144 0.114,-0.0199 0.2443,-0.0669 0.3926,-0.1375 0.1484,-0.0705 0.1376,-0.1592 -0.0325,-0.2641zm-3.9426 -2.4391l0.9101 0c0.1701,0.0362 0.275,0.0887 0.313,0.1593 0.0398,0.0705 0.0905,0.1809 0.1538,0.3293 0.0579,0.0904 0.1067,0.1737 0.1484,0.2478 0.0434,0.0742 0.0579,0.1611 0.0434,0.2606 -0.114,0.0995 -0.2226,0.1556 -0.3293,0.1701 -0.1068,0.0126 -0.2153,-0.0145 -0.3293,-0.0851 -0.1194,-0.0561 -0.228,-0.1067 -0.3275,-0.1483 -0.0995,-0.0435 -0.2009,-0.0851 -0.3076,-0.1285 -0.1339,-0.0489 -0.228,-0.1158 -0.2805,-0.2008 -0.0542,-0.0851 -0.1085,-0.181 -0.1646,-0.2859 -0.0561,-0.0851 -0.076,-0.1484 -0.0579,-0.1918 0.0163,-0.0416 0.0724,-0.0706 0.1628,-0.0832l0.0652 -0.0435zm3.179 -1.2086c0.2135,-0.2045 0.3709,-0.2551 0.4777,-0.1538 0.1067,0.1031 0.1665,0.2533 0.1809,0.4505l-0.0217 0.2768c-0.0633,0.19 -0.114,0.3637 -0.1483,0.5193 -0.0362,0.1556 -0.0778,0.3275 -0.1267,0.5193 -0.0072,0.0634 0.0036,0.0995 0.0308,0.1104 0.0289,0.0109 0.0741,0.0163 0.1375,0.0163 0.284,-0.0706 0.5536,-0.1574 0.8124,-0.2588 0.2569,-0.1031 0.5374,-0.2225 0.8413,-0.3564 0.2479,-0.0145 0.4614,0.0633 0.6424,0.2334 0.1791,0.1701 0.1284,0.3673 -0.1538,0.5935l-0.1918 0.1918c-0.1828,0.0904 -0.3601,0.17 -0.5302,0.2388 -0.1682,0.067 -0.3383,0.1212 -0.5084,0.1628 -0.0977,-0.0199 -0.1574,-0.0452 -0.1737,-0.0741 -0.0181,-0.0272 0.0108,-0.0869 0.0886,-0.1792l0.1918 -0.1918c0.0344,-0.056 0.0543,-0.0959 0.0579,-0.1212 0.0037,-0.0253 -0.0235,-0.0344 -0.0796,-0.0271 -0.1266,0.0434 -0.246,0.0814 -0.3546,0.1176 -0.1104,0.0344 -0.2316,0.0742 -0.3655,0.1158 -0.0778,0.0289 -0.123,0.0561 -0.1339,0.085 -0.009,0.029 0.0199,0.0778 0.0905,0.1484 0.0434,0.0362 0.0796,0.0687 0.1122,0.1013 0.0307,0.0308 0.0579,0.0688 0.0796,0.1104l-0.1068 0.4885c-0.0217,0.0977 -0.0145,0.1719 0.0217,0.2171 0.0344,0.0453 0.105,0.0724 0.2117,0.0797 0.0561,0 0.1086,-0.0037 0.1538,-0.0109 0.0453,-0.0072 0.1013,-0.0181 0.1647,-0.0326 0.2967,-0.1049 0.5953,-0.1321 0.8956,-0.0796 0.3004,0.0543 0.6025,0.1864 0.9065,0.3981 0.1411,0.1845 0.1719,0.3112 0.0905,0.3818 -0.0815,0.0705 -0.2099,0.0995 -0.3872,0.085l-0.6785 -0.1068c-0.1629,-0.0488 -0.3058,-0.085 -0.4289,-0.1103 -0.1248,-0.0254 -0.2641,-0.0236 -0.4197,0.0054 -0.1412,0.0271 -0.2751,0.0633 -0.4035,0.1049 -0.1267,0.0435 -0.2606,0.0652 -0.4017,0.0652 -0.1339,0.0488 -0.2606,0.0995 -0.3764,0.1538 -0.1176,0.0524 -0.2388,0.1067 -0.3654,0.1628 -0.0507,0.0362 -0.0724,0.0633 -0.0688,0.0851 0.0018,0.0217 0.0253,0.0361 0.0688,0.0434 0.2261,-0.0362 0.4396,-0.0887 0.6405,-0.1592 0.2008,-0.0706 0.4197,-0.1032 0.6513,-0.0959 0.2063,0.0144 0.3764,0.0778 0.5157,0.1918 0.1375,0.1121 0.1773,0.2895 0.1212,0.5283 -0.0289,0.503 -0.0144,0.9843 0.0417,1.4475 0.0579,0.4632 0.0995,0.9644 0.1284,1.4999 -0.0145,0.2407 0.0471,0.418 0.1846,0.5302 0.1393,0.114 0.2949,0.2768 0.4722,0.4885 0.1629,0.2407 0.199,0.4397 0.1122,0.5989 -0.0887,0.1592 -0.2823,0.1846 -0.579,0.0796 -0.2605,-0.0922 -0.5084,-0.208 -0.7418,-0.351 -0.2334,-0.1411 -0.4813,-0.3637 -0.7419,-0.6676 -0.0705,-0.0489 -0.1375,-0.0887 -0.2008,-0.1213 -0.0652,-0.0325 -0.1321,-0.0904 -0.2027,-0.1755 -0.0416,-0.0488 -0.0669,-0.0868 -0.0742,-0.1103 -0.0072,-0.0254 0.0037,-0.0579 0.0326,-0.1014 0.0706,-0.1194 0.1665,-0.1809 0.2859,-0.1845 0.1194,-0.0036 0.237,0.0018 0.3492,0.0144 0.1285,0.0073 0.2027,-0.0144 0.2226,-0.0687 0.0217,-0.0525 -0.0037,-0.1357 -0.0742,-0.2479 -0.0272,-0.0507 -0.0453,-0.0995 -0.0525,-0.1484 -0.0072,-0.0506 0.0181,-0.085 0.0742,-0.1067 0.0778,-0.029 0.1104,-0.076 0.0959,-0.143 -0.0145,-0.0669 -0.0597,-0.0904 -0.1375,-0.0687l-0.5302 0.1484c-0.4885,0.2967 -0.9282,0.6694 -1.3208,1.1181 -0.3926,0.4488 -0.8215,0.874 -1.2883,1.2775 -0.085,0.0561 -0.1592,0.0832 -0.2225,0.0796 -0.0634,-0.0036 -0.0941,-0.0579 -0.0941,-0.1647 -0.0145,-0.1483 -0.0091,-0.2931 0.0145,-0.4342 0.0253,-0.1412 0.1049,-0.2787 0.2388,-0.4144 0.0778,-0.0344 0.1393,-0.0452 0.1864,-0.0307 0.0452,0.0144 0.0959,0.0108 0.1538,-0.0109 0.1121,-0.0923 0.2171,-0.1918 0.313,-0.3022 0.0941,-0.1103 0.1881,-0.2135 0.2804,-0.313 0.0561,-0.0488 0.105,-0.1049 0.1484,-0.1646 0.0416,-0.0597 0.0416,-0.1032 0,-0.1321 -0.1484,-0.0145 -0.2986,-0.0054 -0.4505,0.0271 -0.152,0.0308 -0.2986,0.0145 -0.4397,-0.0488 -0.1212,-0.219 -0.2099,-0.4234 -0.266,-0.6152 -0.0561,-0.19 -0.1013,-0.3944 -0.1375,-0.6134 0.1267,-0.2768 0.2117,-0.5319 0.2551,-0.769 0.0416,-0.237 0.1267,-0.4903 0.2533,-0.7581 0.0435,-0.1556 0.1194,-0.2732 0.228,-0.3546 0.1104,-0.0814 0.2388,-0.1122 0.3872,-0.0905 0.0778,-0.0072 0.1321,-0.0235 0.1647,-0.0488 0.0307,-0.0236 0.0542,-0.0724 0.0687,-0.143 -0.0072,-0.1411 0.0235,-0.2732 0.0905,-0.3962 0.0669,-0.1249 0.1212,-0.2533 0.1646,-0.3872 0.1484,-0.1484 0.2877,-0.3004 0.418,-0.456 0.1303,-0.1556 0.2606,-0.3148 0.3872,-0.4777 0.0344,-0.0633 0.0905,-0.1302 0.1647,-0.2008 0.0741,-0.0706 0.1103,-0.1303 0.1103,-0.1809l-0.085 0c-0.161,0.1212 -0.3148,0.2424 -0.4596,0.3654 -0.1465,0.1249 -0.3022,0.257 -0.4722,0.3981 -0.0507,0.0561 -0.0959,0.1068 -0.1375,0.1484 -0.0435,0.0434 -0.1032,0.0561 -0.181,0.0434 -0.0633,-0.0778 -0.114,-0.1538 -0.1538,-0.228 -0.038,-0.0742 -0.0651,-0.1465 -0.0796,-0.2189 -0.0217,-0.0561 -0.0398,-0.0887 -0.0579,-0.0995 -0.0181,-0.0109 -0.0488,0.0018 -0.0905,0.0362 -0.0705,0.0506 -0.1266,0.1013 -0.17,0.1538 -0.0417,0.0542 -0.0851,0.1085 -0.1267,0.1646 -0.1972,0.3329 -0.3944,0.6441 -0.588,0.9391 -0.1954,0.2931 -0.4361,0.6152 -0.7274,0.9698 -0.0489,0.0488 -0.0995,0.0868 -0.1538,0.1104 -0.0525,0.0253 -0.0995,0.0235 -0.1429,-0.0055 -0.0489,-0.0416 -0.0833,-0.0922 -0.105,-0.1538 -0.0217,-0.0597 -0.0633,-0.114 -0.1284,-0.1628 -0.076,-0.0995 -0.143,-0.1791 -0.1955,-0.2388 -0.0524,-0.0598 -0.0723,-0.143 -0.0579,-0.2497 0,-0.1339 0.0091,-0.2353 0.0254,-0.3022 0.0181,-0.0669 0.1013,-0.1719 0.2497,-0.313 0.0561,-0.0416 0.1049,-0.0561 0.1429,-0.0416 0.0398,0.0144 0.0615,0.0561 0.0688,0.1266 0.0072,0.0778 0.0253,0.1285 0.0542,0.1538 0.0272,0.0253 0.0887,0.0235 0.1792,-0.0054 0.2189,-0.1068 0.4234,-0.2515 0.6097,-0.4343 0.1882,-0.1845 0.3872,-0.3781 0.5989,-0.5826 0.2117,-0.2135 0.3691,-0.4017 0.4723,-0.5681 0.1031,-0.1665 0.1863,-0.3583 0.2497,-0.5772l0.465 -0.6369c0.1284,-0.19 0.246,-0.3745 0.3564,-0.5501 0.1086,-0.1773 0.2461,-0.3691 0.4071,-0.5735zm8.7287 6.9118c0.0905,-0.0344 0.1412,-0.0815 0.1484,-0.1376 0.0072,-0.056 0.0072,-0.123 0,-0.2008 0,-0.1411 0.009,-0.2859 0.0253,-0.4342 0.0181,-0.1484 0.0018,-0.2805 -0.047,-0.3927 -0.2045,0.1773 -0.3782,0.3709 -0.5193,0.5826 -0.1411,0.2117 -0.3076,0.4343 -0.4994,0.6677 -0.0778,0.0362 -0.1158,0.0742 -0.1158,0.1176 0,0.0416 0.038,0.0742 0.1158,0.0959l0.892 -0.2985zm0.5935 -6.4866c0.0977,-0.0217 0.2008,-0.0127 0.3076,0.0253 0.1049,0.0398 0.2008,0.1013 0.2859,0.1864 0.0416,0.1049 0.0832,0.2044 0.1212,0.2967 0.0398,0.0923 0.1049,0.1972 0.1972,0.3185 0.0561,0.0977 0.0851,0.1954 0.0887,0.2913 0.0036,0.0941 0.0235,0.2026 0.0597,0.322 0.0344,0.1556 0.085,0.2714 0.1484,0.3456 0.0633,0.0742 0.1827,0.1068 0.36,0.0995 0.2334,0.029 0.3836,0.1267 0.4506,0.2932 0.0669,0.1646 -0.0127,0.3365 -0.2389,0.5138l-0.8052 0.4867c-0.1411,0.0706 -0.2189,0.1484 -0.2334,0.2334 -0.0144,0.0851 0.0344,0.1846 0.1484,0.2968 0.3329,0.3474 0.6532,0.6423 0.9644,0.8866 0.3112,0.2424 0.6478,0.4994 1.0078,0.7671 0.3311,0.1556 0.6568,0.2696 0.9753,0.3402 0.3184,0.0706 0.664,0.1773 1.0385,0.3185 0.1339,0.0977 0.2099,0.2098 0.228,0.3329 0.0181,0.1248 -0.0579,0.2026 -0.228,0.2388 -0.3962,-0.0072 -0.7726,-0.0145 -1.129,-0.0217 -0.3564,-0.0072 -0.7364,-0.0633 -1.1399,-0.1683 -0.3745,-0.2135 -0.7201,-0.4577 -1.0386,-0.7382 -0.3184,-0.2786 -0.6568,-0.5917 -1.0187,-0.9372 -0.056,-0.0634 -0.0995,-0.0905 -0.132,-0.0797 -0.0308,0.0109 -0.0507,0.0435 -0.0579,0.1014 -0.0073,0.2044 -0.0037,0.3944 0.0108,0.5717 0.0145,0.1773 0.0181,0.3673 0.0109,0.5718 0.0271,0.1357 0.0615,0.2135 0.0995,0.2388 0.0398,0.0254 0.1266,0.038 0.2605,0.038 0.2045,-0.0362 0.3927,-0.0506 0.5609,-0.0434 0.1701,0.0072 0.3583,0.0561 0.5628,0.1484 0.1411,0.0705 0.2135,0.161 0.2171,0.2714 0.0036,0.1085 -0.0688,0.1881 -0.2171,0.2388 -0.2117,0.076 -0.4162,0.1357 -0.6098,0.1737 -0.1936,0.0398 -0.3944,0.1013 -0.5989,0.1864 -0.1339,0.0271 -0.2153,0.0687 -0.2443,0.1212 -0.0271,0.0525 -0.038,0.1393 -0.0307,0.2605 0.0072,0.1683 0.009,0.3438 0.0054,0.5248 -0.0036,0.1791 -0.0127,0.3655 -0.0271,0.5554 -0.029,0.0706 -0.0616,0.1195 -0.1014,0.143 -0.038,0.0253 -0.0959,0.0054 -0.1737,-0.0579 -0.0995,-0.0778 -0.1737,-0.1448 -0.2225,-0.2009 -0.0507,-0.0561 -0.0814,-0.1248 -0.0959,-0.2008 -0.0072,-0.1628 -0.0434,-0.2985 -0.1068,-0.4035 -0.0633,-0.1067 -0.0977,-0.2262 -0.1049,-0.3601 -0.0072,-0.0506 -0.038,-0.0741 -0.0905,-0.0741 -0.0524,0 -0.1013,0.009 -0.1429,0.0307 -0.2189,0.1285 -0.4017,0.1592 -0.5464,0.0959 -0.1448,-0.0633 -0.3094,-0.2153 -0.4922,-0.4559 -0.0651,-0.0923 -0.114,-0.1412 -0.1484,-0.1484 -0.0361,-0.0072 -0.085,0.0145 -0.1501,0.0633 -0.1611,0.1068 -0.3112,0.181 -0.4506,0.2226 -0.1375,0.0434 -0.284,0.1103 -0.4396,0.2026 -0.2461,0.076 -0.4669,0.0109 -0.6623,-0.1972 -0.1936,-0.2081 -0.2569,-0.4252 -0.1845,-0.6514 0.0199,-0.085 0.0488,-0.1321 0.0832,-0.1429 0.0362,-0.0109 0.085,-0.0054 0.1484,0.0145 0.0923,0.0289 0.19,0.0199 0.2931,-0.0254 0.1013,-0.047 0.1954,-0.1085 0.2804,-0.1863 0.3456,-0.3529 0.6442,-0.693 0.8957,-1.0169 0.2515,-0.3257 0.4957,-0.6713 0.7364,-1.0386 0.0561,-0.0651 0.0706,-0.1103 0.0434,-0.1393 -0.0289,-0.0271 -0.0706,-0.038 -0.1284,-0.0308 -0.19,-0.0506 -0.3674,-0.0977 -0.5302,-0.1429 -0.161,-0.047 -0.3311,-0.1755 -0.5084,-0.3872 -0.0489,-0.0561 -0.0688,-0.1013 -0.0579,-0.1321 0.0108,-0.0326 0.0434,-0.0525 0.1013,-0.0597 0.1755,-0.0633 0.3402,-0.1303 0.4921,-0.2008 0.152,-0.0706 0.3131,-0.1375 0.4831,-0.2009 0.0978,-0.0289 0.19,-0.0597 0.2751,-0.0959 0.085,-0.0362 0.1827,-0.1031 0.2967,-0.2008 0.0362,-0.0072 0.0688,-0.0054 0.1013,0.0054 0.0308,0.0091 0.076,0.0145 0.1321,0.0145 0.1972,-0.0344 0.304,-0.1538 0.3185,-0.3546 0.0126,-0.2009 0.0199,-0.38 0.0199,-0.5356 0.0072,-0.275 0.0325,-0.5338 0.0742,-0.7744 0.0434,-0.2389 0.0741,-0.4976 0.0958,-0.7726l0.1068 -0.2117z"/>
  </g>
 </g>
</svg>
